# xmcd CD database file
#
# Track frame offsets:
#	150
#	10699
#	28005
#	45924
#	66546
#	84856
#	111862
#	138212
#	156724
#
# Disc length: 2423 seconds
#
# Revision: 0
# Processed by: cddbd v1.5.1PL2 Copyright (c) Steve Scherf et al.
# Submitted via: CDex 1.51
#
DISCID=6d097509
DTITLE=Dan Barta a Illustratosphere - Retropicture
DYEAR=2005
DGENRE=Jazz
TTITLE0=Killing Time
TTITLE1=Brisbane
TTITLE2=Moje vina
TTITLE3=Rano
TTITLE4=I Wish
TTITLE5=Some People
TTITLE6=Introduction To Happiness
TTITLE7=Tabory sestek
TTITLE8=Zivy
EXTD=YEAR: 2005
EXTT0=
EXTT1=
EXTT2=
EXTT3=
EXTT4=
EXTT5=
EXTT6=
EXTT7=
EXTT8=
PLAYORDER=
